<?xml version="1.0" encoding="utf-8"?>
<!-- Generator: Adobe Illustrator 15.0.0, SVG Export Plug-In . SVG Version: 6.00 Build 0)  -->
<!DOCTYPE svg PUBLIC "-//W3C//DTD SVG 1.1//EN" "http://www.w3.org/Graphics/SVG/1.1/DTD/svg11.dtd">
<svg version="1.1" xmlns="http://www.w3.org/2000/svg" xmlns:xlink="http://www.w3.org/1999/xlink" x="0px" y="0px"
	 width="841.89px" height="595.275px" viewBox="0 0 841.89 595.275" enable-background="new 0 0 841.89 595.275"
	 xml:space="preserve">
<g id="exportframe">
	<rect x="-107.694" y="-55.891" fill="#FFFFFF" width="1059.028" height="1120.443"/>
</g>
<g id="blue_boxes">
	<path fill="#ABD1DA" d="M258.528,264.793c0,2.957-2.398,5.355-5.356,5.355h-95.959c-2.958,0-5.356-2.398-5.356-5.355v-95.96
		c0-2.958,2.398-5.356,5.356-5.356h95.959c2.958,0,5.356,2.398,5.356,5.356V264.793z"/>
	<path fill="#ABD1DA" d="M402.369,264.793c0,2.957-2.397,5.355-5.355,5.355h-95.96c-2.958,0-5.355-2.398-5.355-5.355v-95.96
		c0-2.958,2.397-5.356,5.355-5.356h95.96c2.958,0,5.355,2.398,5.355,5.356V264.793z"/>
	<path fill="#ABD1DA" d="M546.211,264.793c0,2.957-2.398,5.355-5.355,5.355h-95.96c-2.958,0-5.356-2.398-5.356-5.355v-95.96
		c0-2.958,2.398-5.356,5.356-5.356h95.96c2.957,0,5.355,2.398,5.355,5.356V264.793z"/>
	<path fill="#ABD1DA" d="M690.053,264.793c0,2.957-2.398,5.355-5.355,5.355h-95.96c-2.958,0-5.356-2.398-5.356-5.355v-95.96
		c0-2.958,2.398-5.356,5.356-5.356h95.96c2.957,0,5.355,2.398,5.355,5.356V264.793z"/>
	<path fill="#ABD1DA" d="M257.861,405.126c0,2.957-2.398,5.355-5.356,5.355h-95.959c-2.958,0-5.356-2.398-5.356-5.355v-95.96
		c0-2.958,2.398-5.356,5.356-5.356h95.959c2.958,0,5.356,2.398,5.356,5.356V405.126z"/>
	<path fill="#ABD1DA" d="M401.703,405.126c0,2.957-2.397,5.355-5.355,5.355h-95.96c-2.958,0-5.355-2.398-5.355-5.355v-95.96
		c0-2.958,2.397-5.356,5.355-5.356h95.96c2.958,0,5.355,2.398,5.355,5.356V405.126z"/>
	<path fill="#ABD1DA" d="M545.545,405.126c0,2.957-2.398,5.355-5.355,5.355h-95.961c-2.957,0-5.355-2.398-5.355-5.355v-95.96
		c0-2.958,2.398-5.356,5.355-5.356h95.961c2.957,0,5.355,2.398,5.355,5.356V405.126z"/>
	<path fill="#ABD1DA" d="M689.387,405.126c0,2.957-2.398,5.355-5.355,5.355H588.07c-2.957,0-5.355-2.398-5.355-5.355v-95.96
		c0-2.958,2.398-5.356,5.355-5.356h95.961c2.957,0,5.355,2.398,5.355,5.356V405.126z"/>
	<path fill="#ABD1DA" d="M257.861,544.459c0,2.957-2.398,5.355-5.356,5.355h-95.959c-2.958,0-5.356-2.398-5.356-5.355v-95.96
		c0-2.958,2.398-5.356,5.356-5.356h95.959c2.958,0,5.356,2.398,5.356,5.356V544.459z"/>
	<path fill="#ABD1DA" d="M401.703,544.459c0,2.957-2.397,5.355-5.355,5.355h-95.96c-2.958,0-5.355-2.398-5.355-5.355v-95.96
		c0-2.958,2.397-5.356,5.355-5.356h95.96c2.958,0,5.355,2.398,5.355,5.356V544.459z"/>
	<path fill="#ABD1DA" d="M545.545,544.459c0,2.957-2.398,5.355-5.355,5.355h-95.961c-2.957,0-5.355-2.398-5.355-5.355v-95.96
		c0-2.958,2.398-5.356,5.355-5.356h95.961c2.957,0,5.355,2.398,5.355,5.356V544.459z"/>
	<path fill="#ABD1DA" d="M689.387,544.459c0,2.957-2.398,5.355-5.355,5.355H588.07c-2.957,0-5.355-2.398-5.355-5.355v-95.96
		c0-2.958,2.398-5.356,5.355-5.356h95.961c2.957,0,5.355,2.398,5.355,5.356V544.459z"/>
	<path fill="#ABD1DA" d="M257.861,685.792c0,2.957-2.398,5.355-5.356,5.355h-95.959c-2.958,0-5.356-2.398-5.356-5.355v-95.96
		c0-2.958,2.398-5.356,5.356-5.356h95.959c2.958,0,5.356,2.398,5.356,5.356V685.792z"/>
	<path fill="#ABD1DA" d="M401.703,685.792c0,2.957-2.397,5.355-5.355,5.355h-95.96c-2.958,0-5.355-2.398-5.355-5.355v-95.96
		c0-2.958,2.397-5.356,5.355-5.356h95.96c2.958,0,5.355,2.398,5.355,5.356V685.792z"/>
	<path fill="#ABD1DA" d="M545.545,685.792c0,2.957-2.398,5.355-5.355,5.355h-95.961c-2.957,0-5.355-2.398-5.355-5.355v-95.96
		c0-2.958,2.398-5.356,5.355-5.356h95.961c2.957,0,5.355,2.398,5.355,5.356V685.792z"/>
	<path fill="#ABD1DA" d="M689.387,685.792c0,2.957-2.398,5.355-5.355,5.355H588.07c-2.957,0-5.355-2.398-5.355-5.355v-95.96
		c0-2.958,2.398-5.356,5.355-5.356h95.961c2.957,0,5.355,2.398,5.355,5.356V685.792z"/>
	<path fill="#ABD1DA" d="M257.861,827.491c0,2.957-2.398,5.355-5.356,5.355h-95.959c-2.958,0-5.356-2.398-5.356-5.355v-95.96
		c0-2.958,2.398-5.356,5.356-5.356h95.959c2.958,0,5.356,2.398,5.356,5.356V827.491z"/>
	<path fill="#ABD1DA" d="M401.703,827.491c0,2.957-2.397,5.355-5.355,5.355h-95.96c-2.958,0-5.355-2.398-5.355-5.355v-95.96
		c0-2.958,2.397-5.356,5.355-5.356h95.96c2.958,0,5.355,2.398,5.355,5.356V827.491z"/>
	<path fill="#ABD1DA" d="M545.545,827.491c0,2.957-2.398,5.355-5.355,5.355h-95.961c-2.957,0-5.355-2.398-5.355-5.355v-95.96
		c0-2.958,2.398-5.356,5.355-5.356h95.961c2.957,0,5.355,2.398,5.355,5.356V827.491z"/>
	<path fill="#ABD1DA" d="M689.387,827.491c0,2.957-2.398,5.355-5.355,5.355H588.07c-2.957,0-5.355-2.398-5.355-5.355v-95.96
		c0-2.958,2.398-5.356,5.355-5.356h95.961c2.957,0,5.355,2.398,5.355,5.356V827.491z"/>
	<path fill="#ABD1DA" d="M257.762,967.491c0,2.957-2.398,5.355-5.355,5.355h-95.961c-2.957,0-5.355-2.398-5.355-5.355v-95.96
		c0-2.958,2.398-5.356,5.355-5.356h95.961c2.957,0,5.355,2.398,5.355,5.356V967.491z"/>
	<path fill="#ABD1DA" d="M403.377,967.116c0,2.957-2.398,5.355-5.355,5.355h-95.961c-2.957,0-5.355-2.398-5.355-5.355v-95.96
		c0-2.958,2.398-5.356,5.355-5.356h95.961c2.957,0,5.355,2.398,5.355,5.356V967.116z"/>
	<path fill="#ABD1DA" d="M543.662,968.616c0,2.957-2.398,5.355-5.355,5.355h-95.961c-2.957,0-5.355-2.398-5.355-5.355v-95.96
		c0-2.958,2.398-5.356,5.355-5.356h95.961c2.957,0,5.355,2.398,5.355,5.356V968.616z"/>
	<path fill="#ABD1DA" d="M688.646,966.741c0,2.957-2.398,5.355-5.355,5.355H587.33c-2.957,0-5.355-2.398-5.355-5.355v-95.96
		c0-2.958,2.398-5.356,5.355-5.356h95.961c2.957,0,5.355,2.398,5.355,5.356V966.741z"/>
</g>
<g id="grid" display="none">
	<g display="inline">
		<line fill="none" stroke="#FFFFFF" stroke-width="0.5" x1="257.75" y1="303.25" x2="148.75" y2="412.25"/>
		<line fill="none" stroke="#FFFFFF" stroke-width="0.5" x1="149.75" y1="301.75" x2="260.75" y2="412.75"/>
		<line fill="none" stroke="#FFFFFF" stroke-width="0.5" x1="204.25" y1="300.25" x2="204.25" y2="413"/>
		<line fill="none" stroke="#FFFFFF" stroke-width="0.5" x1="144.25" y1="356.25" x2="266" y2="356.25"/>
	</g>
	<g display="inline">
		<line fill="none" stroke="#FFFFFF" stroke-width="0.5" x1="401.5" y1="303" x2="292.5" y2="412"/>
		<line fill="none" stroke="#FFFFFF" stroke-width="0.5" x1="293.5" y1="301.5" x2="404.5" y2="412.5"/>
		<line fill="none" stroke="#FFFFFF" stroke-width="0.5" x1="348" y1="300" x2="348" y2="412.75"/>
		<line fill="none" stroke="#FFFFFF" stroke-width="0.5" x1="288" y1="356" x2="409.75" y2="356"/>
	</g>
	<g display="inline">
		<line fill="none" stroke="#FFFFFF" stroke-width="0.5" x1="689.5" y1="303" x2="580.5" y2="412"/>
		<line fill="none" stroke="#FFFFFF" stroke-width="0.5" x1="581.5" y1="301.5" x2="692.5" y2="412.5"/>
		<line fill="none" stroke="#FFFFFF" stroke-width="0.5" x1="636" y1="300" x2="636" y2="412.75"/>
		<line fill="none" stroke="#FFFFFF" stroke-width="0.5" x1="576" y1="356" x2="697.75" y2="356"/>
	</g>
	<g display="inline">
		<line fill="none" stroke="#FFFFFF" stroke-width="0.5" x1="545.5" y1="303" x2="436.5" y2="412"/>
		<line fill="none" stroke="#FFFFFF" stroke-width="0.5" x1="437.5" y1="301.5" x2="548.5" y2="412.5"/>
		<line fill="none" stroke="#FFFFFF" stroke-width="0.5" x1="492" y1="300" x2="492" y2="412.75"/>
		<line fill="none" stroke="#FFFFFF" stroke-width="0.5" x1="432" y1="356" x2="553.75" y2="356"/>
	</g>
	<circle display="inline" fill="none" stroke="#FFFFFF" stroke-width="0.5" cx="491.875" cy="356.125" r="34.375"/>
	<circle display="inline" fill="none" stroke="#FFFFFF" stroke-width="0.5" cx="491.875" cy="356.125" r="15.811"/>
	<g display="inline">
		<circle fill="none" stroke="#FFFFFF" stroke-width="0.5" cx="515.375" cy="400.875" r="34.375"/>
		<circle fill="none" stroke="#FFFFFF" stroke-width="0.5" cx="515.375" cy="400.875" r="15.811"/>
	</g>
	<g display="inline">
		<line fill="none" stroke="#FFFFFF" stroke-width="0.5" x1="257.75" y1="442.583" x2="148.75" y2="551.583"/>
		<line fill="none" stroke="#FFFFFF" stroke-width="0.5" x1="149.75" y1="441.083" x2="260.75" y2="552.083"/>
		<line fill="none" stroke="#FFFFFF" stroke-width="0.5" x1="204.25" y1="439.583" x2="204.25" y2="552.333"/>
		<line fill="none" stroke="#FFFFFF" stroke-width="0.5" x1="144.25" y1="495.583" x2="266" y2="495.583"/>
	</g>
	<g display="inline">
		<line fill="none" stroke="#FFFFFF" stroke-width="0.5" x1="401.5" y1="442.333" x2="292.5" y2="551.333"/>
		<line fill="none" stroke="#FFFFFF" stroke-width="0.5" x1="293.5" y1="440.833" x2="404.5" y2="551.833"/>
		<line fill="none" stroke="#FFFFFF" stroke-width="0.5" x1="348" y1="439.333" x2="348" y2="552.083"/>
		<line fill="none" stroke="#FFFFFF" stroke-width="0.5" x1="288" y1="495.333" x2="409.75" y2="495.333"/>
	</g>
	<g display="inline">
		<line fill="none" stroke="#FFFFFF" stroke-width="0.5" x1="689.5" y1="442.333" x2="580.5" y2="551.333"/>
		<line fill="none" stroke="#FFFFFF" stroke-width="0.5" x1="581.5" y1="440.833" x2="692.5" y2="551.833"/>
		<line fill="none" stroke="#FFFFFF" stroke-width="0.5" x1="636" y1="439.333" x2="636" y2="552.083"/>
		<line fill="none" stroke="#FFFFFF" stroke-width="0.5" x1="576" y1="495.333" x2="697.75" y2="495.333"/>
	</g>
	<g display="inline">
		<line fill="none" stroke="#FFFFFF" stroke-width="0.5" x1="545.5" y1="442.333" x2="436.5" y2="551.333"/>
		<line fill="none" stroke="#FFFFFF" stroke-width="0.5" x1="437.5" y1="440.833" x2="548.5" y2="551.833"/>
		<line fill="none" stroke="#FFFFFF" stroke-width="0.5" x1="492" y1="439.333" x2="492" y2="552.083"/>
		<line fill="none" stroke="#FFFFFF" stroke-width="0.5" x1="432" y1="495.333" x2="553.75" y2="495.333"/>
	</g>
	<path display="inline" fill="#FFFFFF" d="M488.688,473.887"/>
	<g display="inline">
		<line fill="none" stroke="#FFFFFF" stroke-width="0.5" x1="257.75" y1="583.916" x2="148.75" y2="692.916"/>
		<line fill="none" stroke="#FFFFFF" stroke-width="0.5" x1="149.75" y1="582.416" x2="260.75" y2="693.416"/>
		<line fill="none" stroke="#FFFFFF" stroke-width="0.5" x1="204.25" y1="580.916" x2="204.25" y2="693.666"/>
		<line fill="none" stroke="#FFFFFF" stroke-width="0.5" x1="144.25" y1="636.916" x2="266" y2="636.916"/>
	</g>
	<g display="inline">
		<line fill="none" stroke="#FFFFFF" stroke-width="0.5" x1="401.5" y1="583.666" x2="292.5" y2="692.666"/>
		<line fill="none" stroke="#FFFFFF" stroke-width="0.5" x1="293.5" y1="582.166" x2="404.5" y2="693.166"/>
		<line fill="none" stroke="#FFFFFF" stroke-width="0.5" x1="348" y1="580.666" x2="348" y2="693.416"/>
		<line fill="none" stroke="#FFFFFF" stroke-width="0.5" x1="288" y1="636.666" x2="409.75" y2="636.666"/>
	</g>
	<g display="inline">
		<line fill="none" stroke="#FFFFFF" stroke-width="0.5" x1="689.5" y1="583.666" x2="580.5" y2="692.666"/>
		<line fill="none" stroke="#FFFFFF" stroke-width="0.5" x1="581.5" y1="582.166" x2="692.5" y2="693.166"/>
		<line fill="none" stroke="#FFFFFF" stroke-width="0.5" x1="636" y1="580.666" x2="636" y2="693.416"/>
		<line fill="none" stroke="#FFFFFF" stroke-width="0.5" x1="576" y1="636.666" x2="697.75" y2="636.666"/>
	</g>
	<g display="inline">
		<line fill="none" stroke="#FFFFFF" stroke-width="0.5" x1="545.5" y1="583.666" x2="436.5" y2="692.666"/>
		<line fill="none" stroke="#FFFFFF" stroke-width="0.5" x1="437.5" y1="582.166" x2="548.5" y2="693.166"/>
		<line fill="none" stroke="#FFFFFF" stroke-width="0.5" x1="492" y1="580.666" x2="492" y2="693.416"/>
		<line fill="none" stroke="#FFFFFF" stroke-width="0.5" x1="432" y1="636.666" x2="553.75" y2="636.666"/>
	</g>
	<path display="inline" fill="#FFFFFF" d="M488.688,615.22"/>
	<g display="inline">
		<line fill="none" stroke="#FFFFFF" stroke-width="0.5" x1="257.75" y1="725.615" x2="148.75" y2="834.615"/>
		<line fill="none" stroke="#FFFFFF" stroke-width="0.5" x1="149.75" y1="724.115" x2="260.75" y2="835.115"/>
		<line fill="none" stroke="#FFFFFF" stroke-width="0.5" x1="204.25" y1="722.615" x2="204.25" y2="835.365"/>
		<line fill="none" stroke="#FFFFFF" stroke-width="0.5" x1="144.25" y1="778.615" x2="266" y2="778.615"/>
	</g>
	<g display="inline">
		<line fill="none" stroke="#FFFFFF" stroke-width="0.5" x1="401.5" y1="725.365" x2="292.5" y2="834.365"/>
		<line fill="none" stroke="#FFFFFF" stroke-width="0.5" x1="293.5" y1="723.865" x2="404.5" y2="834.865"/>
		<line fill="none" stroke="#FFFFFF" stroke-width="0.5" x1="348" y1="722.365" x2="348" y2="835.115"/>
		<line fill="none" stroke="#FFFFFF" stroke-width="0.5" x1="288" y1="778.365" x2="409.75" y2="778.365"/>
	</g>
	<g display="inline">
		<line fill="none" stroke="#FFFFFF" stroke-width="0.5" x1="689.5" y1="725.365" x2="580.5" y2="834.365"/>
		<line fill="none" stroke="#FFFFFF" stroke-width="0.5" x1="581.5" y1="723.865" x2="692.5" y2="834.865"/>
		<line fill="none" stroke="#FFFFFF" stroke-width="0.5" x1="636" y1="722.365" x2="636" y2="835.115"/>
		<line fill="none" stroke="#FFFFFF" stroke-width="0.5" x1="576" y1="778.365" x2="697.75" y2="778.365"/>
	</g>
	<g display="inline">
		<line fill="none" stroke="#FFFFFF" stroke-width="0.5" x1="545.5" y1="725.365" x2="436.5" y2="834.365"/>
		<line fill="none" stroke="#FFFFFF" stroke-width="0.5" x1="437.5" y1="723.865" x2="548.5" y2="834.865"/>
		<line fill="none" stroke="#FFFFFF" stroke-width="0.5" x1="492" y1="722.365" x2="492" y2="835.115"/>
		<line fill="none" stroke="#FFFFFF" stroke-width="0.5" x1="432" y1="778.365" x2="553.75" y2="778.365"/>
	</g>
	<path display="inline" fill="#FFFFFF" d="M488.688,756.919"/>
	<g display="inline">
		<line fill="none" stroke="#FFFFFF" stroke-width="0.5" x1="257.875" y1="865.365" x2="148.875" y2="974.365"/>
		<line fill="none" stroke="#FFFFFF" stroke-width="0.5" x1="149.875" y1="863.865" x2="260.875" y2="974.865"/>
		<line fill="none" stroke="#FFFFFF" stroke-width="0.5" x1="204.375" y1="862.365" x2="204.375" y2="975.115"/>
		<line fill="none" stroke="#FFFFFF" stroke-width="0.5" x1="144.375" y1="918.365" x2="266.125" y2="918.365"/>
	</g>
	<g display="inline">
		<line fill="none" stroke="#FFFFFF" stroke-width="0.5" x1="403.49" y1="864.99" x2="294.49" y2="973.99"/>
		<line fill="none" stroke="#FFFFFF" stroke-width="0.5" x1="295.49" y1="863.49" x2="406.49" y2="974.49"/>
		<line fill="none" stroke="#FFFFFF" stroke-width="0.5" x1="349.99" y1="861.99" x2="349.99" y2="974.74"/>
		<line fill="none" stroke="#FFFFFF" stroke-width="0.5" x1="289.99" y1="917.99" x2="411.74" y2="917.99"/>
	</g>
	<g display="inline">
		<line fill="none" stroke="#FFFFFF" stroke-width="0.5" x1="543.775" y1="866.49" x2="434.775" y2="975.49"/>
		<line fill="none" stroke="#FFFFFF" stroke-width="0.5" x1="435.775" y1="864.99" x2="546.775" y2="975.99"/>
		<line fill="none" stroke="#FFFFFF" stroke-width="0.5" x1="490.275" y1="863.49" x2="490.275" y2="976.24"/>
		<line fill="none" stroke="#FFFFFF" stroke-width="0.5" x1="430.275" y1="919.49" x2="552.025" y2="919.49"/>
	</g>
	<g display="inline">
		<line fill="none" stroke="#FFFFFF" stroke-width="0.5" x1="688.76" y1="864.615" x2="579.76" y2="973.615"/>
		<line fill="none" stroke="#FFFFFF" stroke-width="0.5" x1="580.76" y1="863.115" x2="691.76" y2="974.115"/>
		<line fill="none" stroke="#FFFFFF" stroke-width="0.5" x1="635.26" y1="861.615" x2="635.26" y2="974.365"/>
		<line fill="none" stroke="#FFFFFF" stroke-width="0.5" x1="575.26" y1="917.615" x2="697.01" y2="917.615"/>
	</g>
</g>
<g id="symbols">
	<polygon fill="#FDFDFE" points="194,892.171 199.333,881.832 209.322,880.982 213.953,890.784 	"/>
	<path fill="#FFFFFF" stroke="#1B7D9B" stroke-width="3" stroke-miterlimit="10" d="M371.5,745.451c0-1.252-1.015-2.268-2.268-2.268
		h-42.465c-1.252,0-2.268,1.016-2.268,2.268v48.131c0,1.252,1.015,2.268,2.268,2.268h42.465c1.252,0,2.268-1.016,2.268-2.268
		V745.451z"/>
	<path fill="#FFFFFF" stroke="#1B7D9B" stroke-width="6" stroke-miterlimit="10" d="M218.653,793.923h18.007v-45.528
		c0-1.108-0.899-2.009-2.009-2.009h-60.803c-1.109,0-2.009,0.9-2.009,2.009v63.462c0,1.108,0.899,2.009,2.009,2.009h44.92
		L218.653,793.923z"/>
	<circle fill="#FFFFFF" cx="632.913" cy="636.915" r="27.782"/>
	<path fill="#1B7D9B" d="M386.434,221.243c0-25.779-36.177-46.96-36.177-46.96s-36.177,20.902-36.177,46.96
		c0,21.472,16.197,38.878,36.177,38.878S386.434,242.715,386.434,221.243z"/>
	<path fill="#FFFFFF" d="M370.012,226.234c-1.916,1.198-2.624,7.532-7.15,13.799s-0.795,6.609,1.8,6.111
		c3.913-0.752,11.254-8.914,10.378-17.287C374.591,224.567,371.927,225.036,370.012,226.234z"/>
	<path fill="#1B7D9B" d="M479.957,181.729c-4.738-4.738-20.237-5.891-20.237-5.891s2.148,14.4,6.938,19.19
		c3.946,3.946,10.123,4.169,13.796,0.496C484.126,191.853,483.904,185.676,479.957,181.729z"/>
	<path fill="#1B7D9B" d="M470.362,211.293c-4.738-4.738-20.238-5.892-20.238-5.892s2.149,14.401,6.938,19.19
		c3.947,3.947,10.124,4.169,13.797,0.496C474.531,221.417,474.309,215.24,470.362,211.293z"/>
	<path fill="#1B7D9B" d="M514.967,185.879c-4.738-4.739-20.237-5.892-20.237-5.892s2.148,14.4,6.938,19.19
		c3.946,3.946,10.123,4.169,13.796,0.496C519.136,196.002,518.914,189.826,514.967,185.879z"/>
	<path fill="#1B7D9B" d="M501.481,212.331c-4.738-4.738-20.237-5.892-20.237-5.892s2.148,14.401,6.938,19.19
		c3.946,3.947,10.123,4.169,13.796,0.497C505.65,222.454,505.429,216.278,501.481,212.331z"/>
	<path fill="#1B7D9B" d="M488.77,238.523c-4.738-4.738-20.238-5.893-20.238-5.893s2.149,14.402,6.939,19.191
		c3.946,3.947,10.123,4.168,13.796,0.496C492.938,248.646,492.716,242.471,488.77,238.523z"/>
	<path fill="#1B7D9B" d="M533.639,215.443c-4.738-4.739-20.238-5.892-20.238-5.892s2.149,14.401,6.939,19.191
		c3.946,3.945,10.123,4.168,13.796,0.496C537.808,225.566,537.586,219.389,533.639,215.443z"/>
	<path fill="#1B7D9B" d="M523.784,243.969c-4.738-4.738-20.238-5.891-20.238-5.891s2.149,14.4,6.939,19.189
		c3.946,3.947,10.123,4.17,13.796,0.496C527.953,254.092,527.73,247.916,523.784,243.969z"/>
	<g>
		<g>
			<path fill="#1B7D9B" d="M603.802,257.83c-0.031-3.051,0.899-5.422,1.923-7.045l0,0c1.031-1.645,1.841-2.584,2.251-3.621l0,0
				c0.284-0.701,0.492-1.504,0.497-2.85l0,0c-0.031-2.018-0.414-2.816-1.033-3.883l0,0c-0.61-1.049-1.771-2.328-2.676-4.457l0,0
				c-0.591-1.412-0.967-3.143-0.962-5.176l0,0c-0.031-3.051,0.899-5.42,1.923-7.044l0,0c1.031-1.644,1.841-2.583,2.251-3.621l0,0
				c0.284-0.699,0.492-1.504,0.497-2.848l0,0c-0.031-2.018-0.414-2.814-1.033-3.884l0,0c-0.61-1.047-1.771-2.326-2.676-4.455l0,0
				c-0.591-1.412-0.967-3.142-0.962-5.175l0,0c-0.031-3.051,0.899-5.422,1.923-7.045l0,0c1.031-1.645,1.841-2.583,2.251-3.621l0,0
				c0.284-0.699,0.492-1.504,0.497-2.849l0,0h0.002h6.07c0.032,3.051-0.897,5.421-1.922,7.045l0,0
				c-1.031,1.645-1.841,2.583-2.25,3.621l0,0c-0.284,0.699-0.492,1.504-0.498,2.849l0,0c0.031,2.018,0.414,2.813,1.034,3.882l0,0
				c0.61,1.048,1.771,2.327,2.675,4.456l0,0c0.592,1.412,0.968,3.143,0.961,5.176l0,0c0.032,3.05-0.897,5.421-1.922,7.044l0,0
				c-1.031,1.644-1.841,2.583-2.25,3.622l0,0c-0.284,0.699-0.492,1.504-0.498,2.848l0,0c0.031,2.018,0.414,2.814,1.034,3.883l0,0
				c0.61,1.049,1.771,2.326,2.675,4.457l0,0c0.592,1.412,0.968,3.141,0.961,5.176l0,0c0.032,3.051-0.897,5.42-1.922,7.043l0,0
				c-1.031,1.646-1.841,2.584-2.25,3.623l0,0c-0.284,0.699-0.492,1.504-0.498,2.85l0,0H603.802L603.802,257.83z"/>
		</g>
		<polygon fill="#1B7D9B" points="611.187,190.396 603.203,190.396 607.195,183.482 611.187,176.567 615.179,183.482 
			619.171,190.396 		"/>
	</g>
	<g>
		<g>
			<path fill="#1B7D9B" d="M621.966,257.934c-0.031-3.051,0.9-5.422,1.923-7.045l0,0c1.031-1.645,1.842-2.584,2.251-3.621l0,0
				c0.284-0.701,0.492-1.504,0.497-2.848l0,0c-0.031-2.02-0.414-2.816-1.033-3.885l0,0c-0.61-1.049-1.771-2.326-2.677-4.457l0,0
				c-0.59-1.412-0.966-3.141-0.961-5.176l0,0c-0.031-3.051,0.9-5.42,1.923-7.043l0,0c1.031-1.645,1.842-2.583,2.251-3.621l0,0
				c0.284-0.7,0.492-1.504,0.497-2.849l0,0c-0.031-2.018-0.414-2.813-1.033-3.883l0,0c-0.61-1.048-1.771-2.327-2.677-4.456l0,0
				c-0.59-1.411-0.966-3.142-0.961-5.175l0,0c-0.031-3.051,0.9-5.421,1.923-7.045l0,0c1.031-1.644,1.842-2.583,2.251-3.621l0,0
				c0.284-0.699,0.492-1.503,0.497-2.849l0,0h0.002h6.07c0.031,3.051-0.897,5.421-1.922,7.046l0,0
				c-1.031,1.644-1.841,2.582-2.25,3.62l0,0c-0.285,0.699-0.492,1.504-0.497,2.849l0,0c0.029,2.018,0.413,2.813,1.033,3.882l0,0
				c0.61,1.048,1.771,2.328,2.675,4.457l0,0c0.592,1.411,0.968,3.142,0.961,5.175l0,0c0.031,3.05-0.897,5.421-1.922,7.045l0,0
				c-1.031,1.644-1.841,2.582-2.25,3.621l0,0c-0.285,0.699-0.492,1.504-0.497,2.848l0,0c0.029,2.018,0.413,2.816,1.033,3.885l0,0
				c0.61,1.047,1.771,2.326,2.675,4.455l0,0c0.592,1.412,0.968,3.143,0.961,5.178l0,0c0.031,3.049-0.897,5.418-1.922,7.043l0,0
				c-1.031,1.645-1.841,2.584-2.25,3.621l0,0c-0.285,0.701-0.492,1.504-0.497,2.85l0,0H621.966L621.966,257.934z"/>
		</g>
		<polygon fill="#1B7D9B" points="629.351,190.5 621.367,190.5 625.358,183.585 629.351,176.671 633.343,183.585 637.335,190.5 		
			"/>
	</g>
	<g>
		<g>
			<path fill="#1B7D9B" d="M640.131,257.727c-0.031-3.051,0.899-5.422,1.922-7.045l0,0c1.032-1.645,1.842-2.584,2.251-3.623l0,0
				c0.285-0.699,0.493-1.504,0.498-2.848l0,0c-0.031-2.018-0.415-2.816-1.033-3.885l0,0c-0.61-1.047-1.771-2.326-2.677-4.455l0,0
				c-0.59-1.412-0.966-3.143-0.961-5.176l0,0c-0.031-3.051,0.899-5.42,1.922-7.044l0,0c1.032-1.645,1.842-2.583,2.251-3.621l0,0
				c0.285-0.699,0.493-1.504,0.498-2.849l0,0c-0.031-2.018-0.415-2.813-1.033-3.883l0,0c-0.61-1.047-1.771-2.326-2.677-4.456l0,0
				c-0.59-1.411-0.966-3.142-0.961-5.175l0,0c-0.031-3.05,0.899-5.421,1.922-7.045l0,0c1.032-1.644,1.842-2.583,2.251-3.62l0,0
				c0.285-0.699,0.493-1.504,0.498-2.849l0,0h0.002h6.07c0.031,3.05-0.897,5.421-1.922,7.045l0,0
				c-1.031,1.644-1.841,2.583-2.25,3.62l0,0c-0.284,0.7-0.492,1.504-0.498,2.849l0,0c0.03,2.018,0.414,2.814,1.034,3.882l0,0
				c0.609,1.049,1.771,2.328,2.675,4.457l0,0c0.592,1.412,0.968,3.142,0.961,5.175l0,0c0.031,3.05-0.897,5.422-1.922,7.045l0,0
				c-1.031,1.644-1.841,2.583-2.25,3.622l0,0c-0.284,0.699-0.492,1.502-0.498,2.848l0,0c0.03,2.018,0.414,2.814,1.034,3.883l0,0
				c0.609,1.049,1.771,2.326,2.675,4.457l0,0c0.592,1.412,0.968,3.141,0.961,5.176l0,0c0.031,3.051-0.897,5.42-1.922,7.043l0,0
				c-1.031,1.646-1.841,2.584-2.25,3.623l0,0c-0.284,0.699-0.492,1.504-0.498,2.85l0,0H640.131L640.131,257.727z"/>
		</g>
		<polygon fill="#1B7D9B" points="647.516,190.292 639.532,190.292 643.523,183.377 647.516,176.463 651.508,183.377 655.5,190.292 
					"/>
	</g>
	<g>
		<g>
			<path fill="#1B7D9B" d="M658.295,258.037c-0.031-3.051,0.9-5.42,1.923-7.045l0,0c1.031-1.645,1.841-2.582,2.251-3.621l0,0
				c0.284-0.701,0.492-1.504,0.497-2.848l0,0c-0.031-2.02-0.414-2.816-1.033-3.885l0,0c-0.61-1.049-1.771-2.326-2.676-4.457l0,0
				c-0.591-1.412-0.967-3.143-0.962-5.176l0,0c-0.031-3.051,0.9-5.42,1.923-7.043l0,0c1.031-1.645,1.841-2.583,2.251-3.621l0,0
				c0.284-0.7,0.492-1.504,0.497-2.849l0,0c-0.031-2.018-0.414-2.813-1.033-3.883l0,0c-0.61-1.048-1.771-2.326-2.676-4.456l0,0
				c-0.591-1.411-0.967-3.142-0.962-5.175l0,0c-0.031-3.05,0.9-5.421,1.923-7.045l0,0c1.031-1.644,1.841-2.582,2.251-3.62l0,0
				c0.284-0.7,0.492-1.504,0.497-2.849l0,0h0.002h6.07c0.032,3.05-0.897,5.421-1.922,7.045l0,0c-1.031,1.644-1.841,2.582-2.25,3.62
				l0,0c-0.284,0.699-0.492,1.504-0.497,2.849l0,0c0.03,2.018,0.413,2.813,1.033,3.882l0,0c0.61,1.049,1.771,2.328,2.675,4.457l0,0
				c0.592,1.411,0.968,3.142,0.961,5.175l0,0c0.032,3.05-0.897,5.421-1.922,7.045l0,0c-1.031,1.644-1.841,2.582-2.25,3.621l0,0
				c-0.284,0.699-0.492,1.504-0.497,2.848l0,0c0.03,2.018,0.413,2.816,1.033,3.885l0,0c0.61,1.047,1.771,2.326,2.675,4.455l0,0
				c0.592,1.412,0.968,3.141,0.961,5.178l0,0c0.032,3.049-0.897,5.418-1.922,7.043l0,0c-1.031,1.645-1.841,2.584-2.25,3.621l0,0
				c-0.284,0.701-0.492,1.504-0.497,2.85l0,0H658.295L658.295,258.037z"/>
		</g>
		<polygon fill="#1B7D9B" points="665.68,190.604 657.696,190.604 661.688,183.689 665.68,176.775 669.672,183.689 673.664,190.604 
					"/>
	</g>
	<g>
		<defs>
			<path id="SVGID_1_" d="M258.528,265.285c0,2.709-2.398,4.906-5.356,4.906h-95.959c-2.958,0-5.356-2.197-5.356-4.906v-87.902
				c0-2.71,2.398-4.906,5.356-4.906h95.959c2.958,0,5.356,2.196,5.356,4.906V265.285z"/>
		</defs>
		<clipPath id="SVGID_2_">
			<use xlink:href="#SVGID_1_"  overflow="visible"/>
		</clipPath>
		<g clip-path="url(#SVGID_2_)">
			<path fill="#FFFFFF" d="M151.526,213.398c0,0,23.564-6.63,39.605-4.42c0,0,22.415-19.448,27.967-21.657
				c0,0-3.702-4.199-9.048-7.072c-5.347-2.873-6.581-5.746-24.266,5.967C168.099,197.93,153.788,210.306,151.526,213.398z"/>
			<path fill="#FFFFFF" d="M197.519,209.13c0,0,36.378,6.428,53.565,4.889c6.957-0.661,7.775-1.76,7.775-1.76v-7.255
				c0,0-16.573-14.514-20.052-16.272c-3.478-1.759-7.283-6.53-20.173,2.046C205.743,199.354,201.202,205.832,197.519,209.13z"/>
			<path fill="#8CAE81" d="M150.939,249.342v-21.133c0,0,13.295-7.164,15.836-8.238c2.542-1.074,7.625-4.118,18.377,2.867
				s17.791,9,17.791,9s-14.663-1.702-25.807,1.564C167.06,236.358,150.939,249.342,150.939,249.342z"/>
			<path fill="#1B7D9B" d="M207.734,214.33c0,0-13.197,4.924-13.001,8.148c0.196,3.223,2.64,4.163,4.594,5.418
				c1.956,1.254,11.447,3.239,5.963,5.149c-3.729,1.296-10.362,0.58-10.362,0.58s6.422,3.104,8.089,3.695
				c5.132,1.813,8.6,2.954,13.417,5.08c5.474,2.418,5.084,3.672,0,5.644c-5.083,1.969-26.784,10.432-27.175,14.37
				c-0.391,3.941,2.346,7.523,3.128,7.88c0.646,0.296,45.729,0.104,61.584,0.027c3.336-0.017,5.072-2.841,5.084-5.624
				c0.007-1.958,0.357-4.613,0.195-6.761c-0.183-2.432,0.051-6.38,0.051-6.38s-4.813-4.132-10.803-5.617
				c-19.307-4.791-20.725-16.118-31.477-17.731c-10.753-1.611-20.137-5.642-15.836-9.491
				C203.726,216.926,207.734,214.33,207.734,214.33z"/>
			<path fill="#8CAE81" d="M211.595,225.299c0,0,12.317,1.209,17.156,5.372c3.833,3.298,6.622,7.858,17.468,10.792
				c10.847,2.934,13.222,3.626,13.222,3.626V228.53c0,0-14.358-7.949-17.25-9.557C239.298,217.364,225.23,218.203,211.595,225.299z"
				/>
			<path fill="#5B9240" d="M177.137,270.653h-22.092c0,0-3.882-0.467-3.813-2.596c0.098-3,0-11.821,0-11.821
				s6.012-5.953,10.068-8.907c4.58-3.337,20.968-17.91,32.845-11.352c9.302,5.138,17.743,7.206,20.626,8.307
				c0,0-23.144,8.954-27.591,11.371C183.37,257.729,173.325,262.147,177.137,270.653z"/>
		</g>
	</g>
	<path fill="#1B7D9B" d="M234.419,376.267c0.593,0.593,0.593,1.555,0,2.146l-7.783,7.783c-0.592,0.593-1.554,0.593-2.146,0
		l-48.709-48.709c-0.593-0.593-0.593-1.554,0-2.147l7.783-7.782c0.592-0.592,1.554-0.592,2.146,0L234.419,376.267z"/>
	<path fill="#1B7D9B" d="M185.71,385.816c-0.593,0.592-1.554,0.592-2.147,0l-7.783-7.783c-0.592-0.592-0.592-1.553,0-2.146
		l48.709-48.708c0.593-0.593,1.554-0.593,2.147,0l7.783,7.782c0.592,0.593,0.592,1.555,0,2.146L185.71,385.816z"/>
	<g>
		<path fill="#1B7D9B" d="M338.527,388.787c-0.628,0.628-1.645,0.628-2.273,0l-8.239-8.239c-0.627-0.627-0.627-1.645,0-2.271
			l48.722-48.722c0.628-0.629,1.646-0.629,2.273-0.001l8.238,8.239c0.627,0.628,0.627,1.646,0,2.272L338.527,388.787z"/>
		<path fill="#1B7D9B" d="M344.463,375.94c0.628,0.628,0.627,1.646,0,2.273l-8.239,8.238c-0.627,0.627-1.645,0.627-2.271,0
			l-20.882-20.88c-0.627-0.628-0.627-1.646,0-2.274l8.239-8.237c0.627-0.628,1.646-0.628,2.272,0L344.463,375.94z"/>
	</g>
	<g>
		<path fill="#1B7D9B" d="M492.729,321.884c-12.24,0-22.254,9.53-23.025,21.576c-0.035,0.549,0.533,1.361,1.548,1.416
			c0.363,0.02,8.117,0.008,11.191,0.003c0.765-0.002,1.258-0.723,1.284-1.067c0.404-5.162,3.507-7.902,9.002-7.902
			c5.891,0,9.052,3.16,9.052,9.05c0,4.617-2.97,7.177-5.178,8.426c-10.15,6.123-12.236,14.967-12.665,18.275
			c-0.108,0.832,0.517,1.314,1.441,1.314c0.713,0,7.875,0,11.129,0c0.972,0,1.603-0.421,1.788-1.137
			c0.486-1.884,2.199-5.808,8.22-9.482c7.229-4.413,9.29-10.732,9.29-17.396C515.806,332.215,505.473,321.884,492.729,321.884z"/>
	</g>
	<path fill="#1B7D9B" d="M498.522,390.056c0,0.931-0.754,1.685-1.685,1.685h-11.374c-0.931,0-1.686-0.754-1.686-1.685v-10.321
		c0-0.931,0.755-1.685,1.686-1.685h11.374c0.931,0,1.685,0.754,1.685,1.685V390.056z"/>
	<path fill="#1B7D9B" d="M644.863,391.842c0,0.993-0.806,1.798-1.799,1.798h-13.033c-0.992,0-1.798-0.805-1.798-1.798v-45.616
		c0-0.993,0.806-1.8,1.8-1.8h13.033c0.991,0.002,1.797,0.807,1.797,1.8V391.842z"/>
	<circle fill="#1B7D9B" cx="636.1" cy="328.698" r="9.213"/>
	<path fill="#1B7D9B" d="M336.809,524.721c0,0.89-0.722,1.611-1.612,1.611h-11.683c-0.889,0-1.61-0.721-1.611-1.611v-55.889
		c0-0.89,0.722-1.611,1.612-1.611h11.684c0.89,0,1.611,0.722,1.611,1.61V524.721z"/>
	<path fill="#1B7D9B" d="M373.463,524.721c0,0.89-0.722,1.611-1.612,1.611h-11.684c-0.889,0-1.61-0.721-1.611-1.611v-55.889
		c0-0.89,0.722-1.611,1.612-1.611h11.683c0.89,0,1.612,0.722,1.611,1.61V524.721z"/>
	<path fill="#1B7D9B" d="M326.039,503.455c-0.63,0-1.142-0.722-1.142-1.611V490.16c0-0.889,0.511-1.61,1.142-1.611h44.834
		c0.63,0,1.142,0.723,1.142,1.612v11.684c0,0.89-0.511,1.611-1.142,1.61H326.039z"/>
	<path fill="#5694AA" d="M246.559,474.961c0,1.009-1.015,1.829-2.268,1.829h-58.064c-1.252,0-2.268-0.82-2.268-1.829v-4.144
		c0-1.011,1.015-1.831,2.268-1.831h58.064c1.252,0,2.268,0.82,2.268,1.831V474.961z"/>
	<circle fill="#1B7D9B" cx="170.959" cy="472.888" r="6.833"/>
	<path fill="#5694AA" d="M246.559,498.406c0,1.009-1.015,1.829-2.268,1.829h-58.064c-1.252,0-2.268-0.82-2.268-1.829v-4.144
		c0-1.011,1.015-1.831,2.268-1.831h58.064c1.252,0,2.268,0.82,2.268,1.831V498.406z"/>
	<circle fill="#1B7D9B" cx="170.959" cy="496.333" r="6.833"/>
	<path fill="#5694AA" d="M246.559,520.211c0,1.009-1.015,1.829-2.268,1.829h-58.064c-1.252,0-2.268-0.82-2.268-1.829v-4.144
		c0-1.011,1.015-1.831,2.268-1.831h58.064c1.252,0,2.268,0.82,2.268,1.831V520.211z"/>
	<circle fill="#1B7D9B" cx="170.959" cy="518.138" r="6.833"/>
	<path fill="#5694AA" d="M246.559,616.113c0,1.009-1.015,1.829-2.268,1.829h-58.064c-1.252,0-2.268-0.82-2.268-1.829v-4.144
		c0-1.011,1.015-1.831,2.268-1.831h58.064c1.252,0,2.268,0.82,2.268,1.831V616.113z"/>
	<path fill="#5694AA" d="M246.559,639.559c0,1.009-1.015,1.829-2.268,1.829h-58.064c-1.252,0-2.268-0.82-2.268-1.829v-4.144
		c0-1.011,1.015-1.831,2.268-1.831h58.064c1.252,0,2.268,0.82,2.268,1.831V639.559z"/>
	<path fill="#5694AA" d="M246.559,661.363c0,1.009-1.015,1.829-2.268,1.829h-58.064c-1.252,0-2.268-0.82-2.268-1.829v-4.144
		c0-1.011,1.015-1.831,2.268-1.831h58.064c1.252,0,2.268,0.82,2.268,1.831V661.363z"/>
	<g>
		<path fill="#1B7D9B" d="M496.68,464.887c3.058,0,5.846,0.27,8.362,0.809c2.519,0.539,4.676,1.425,6.475,2.652
			c1.798,1.229,3.191,2.864,4.181,4.9c0.989,2.038,1.483,4.557,1.483,7.553c0,3.237-0.734,5.935-2.202,8.093
			c-1.47,2.158-3.643,3.927-6.52,5.305c3.957,1.139,6.908,3.133,8.857,5.98c1.946,2.847,2.921,6.278,2.921,10.295
			c0,3.237-0.629,6.038-1.888,8.406c-1.258,2.368-2.953,4.302-5.08,5.799c-2.128,1.499-4.556,2.608-7.283,3.327
			c-2.729,0.72-5.529,1.08-8.406,1.08c0,0-25.832,0.01-27.313,0c-1.48-0.011-3.803-1.308-3.811-3.537
			c-0.039-12.686-0.159-55.252,0.012-56.75c0.203-1.762,1.12-3.912,4.151-3.912C473.65,464.887,496.68,464.887,496.68,464.887z
			 M494.596,490.109c2.261,0,4.119-0.538,5.572-1.615c1.455-1.077,2.183-2.828,2.183-5.251c0-1.347-0.243-2.451-0.728-3.313
			c-0.484-0.86-1.13-1.535-1.938-2.021c-0.809-0.483-1.737-0.818-2.788-1.009c-1.049-0.188-2.141-0.283-3.271-0.283h-11.878v13.492
			H494.596z M495.478,517.313c1.253,0,2.452-0.122,3.597-0.368c1.144-0.244,2.151-0.653,3.023-1.225
			c0.871-0.572,1.565-1.35,2.084-2.329c0.517-0.981,0.776-2.234,0.776-3.76c0-2.996-0.845-5.135-2.533-6.415
			c-1.69-1.28-3.924-1.92-6.701-1.92h-13.976v16.017H495.478z"/>
	</g>
	<path fill="#1B7D9B" d="M636.408,527.541c0,0.989-0.802,1.792-1.791,1.792h-12.988c-0.987,0-1.789-0.802-1.79-1.792l17.446-62.125
		c0-0.989,0.803-1.792,1.792-1.792h12.987c0.988,0,1.791,0.803,1.79,1.791L636.408,527.541z"/>
	<g>
		<path fill="#1B7D9B" d="M169.884,622.152v-12.295h-4.766v-2.897c0.667,0.018,1.313-0.031,1.936-0.149
			c0.623-0.116,1.182-0.324,1.679-0.622s0.917-0.69,1.259-1.179c0.343-0.487,0.569-1.092,0.677-1.813h3.06v18.956H169.884z"/>
	</g>
	<g>
		<path fill="#1B7D9B" d="M164.495,631.073c0.289-0.929,0.722-1.742,1.3-2.437c0.578-0.695,1.304-1.236,2.18-1.626
			c0.875-0.388,1.881-0.581,3.019-0.581c0.867,0,1.693,0.135,2.478,0.405s1.476,0.659,2.072,1.164
			c0.596,0.506,1.069,1.129,1.422,1.869c0.352,0.741,0.527,1.57,0.527,2.492c0,0.956-0.153,1.777-0.46,2.464
			c-0.307,0.686-0.713,1.295-1.219,1.827c-0.505,0.533-1.079,1.016-1.719,1.449c-0.641,0.434-1.287,0.862-1.937,1.286
			c-0.65,0.425-1.282,0.881-1.896,1.368c-0.614,0.486-1.156,1.056-1.625,1.706h8.963v3.304h-13.919c0-1.101,0.158-2.059,0.474-2.871
			c0.316-0.812,0.745-1.539,1.287-2.179c0.542-0.642,1.178-1.233,1.909-1.774c0.731-0.542,1.503-1.093,2.315-1.652
			c0.416-0.288,0.858-0.582,1.327-0.88s0.898-0.627,1.286-0.988c0.388-0.361,0.713-0.768,0.975-1.219s0.393-0.966,0.393-1.543
			c0-0.922-0.266-1.639-0.799-2.154c-0.533-0.515-1.214-0.771-2.044-0.771c-0.56,0-1.034,0.132-1.422,0.393
			c-0.388,0.263-0.7,0.605-0.934,1.03c-0.235,0.423-0.402,0.894-0.501,1.407c-0.1,0.515-0.149,1.025-0.149,1.53h-3.683
			C164.08,633.01,164.206,632.003,164.495,631.073z"/>
	</g>
	<g>
		<path fill="#1B7D9B" d="M170.615,658.143c0.47-0.035,0.907-0.139,1.314-0.312c0.406-0.171,0.74-0.419,1.001-0.743
			c0.262-0.326,0.393-0.759,0.393-1.301c0-0.813-0.271-1.435-0.813-1.868c-0.542-0.434-1.164-0.65-1.869-0.65
			c-0.975,0-1.71,0.321-2.207,0.962c-0.497,0.64-0.736,1.448-0.718,2.424h-3.656c0.036-0.976,0.212-1.865,0.528-2.668
			c0.316-0.804,0.758-1.494,1.327-2.072c0.568-0.577,1.25-1.024,2.044-1.34c0.794-0.315,1.679-0.474,2.653-0.474
			c0.758,0,1.517,0.112,2.275,0.338s1.44,0.565,2.045,1.016c0.604,0.451,1.097,1.003,1.476,1.652
			c0.379,0.65,0.568,1.399,0.568,2.248c0,0.92-0.221,1.733-0.664,2.437c-0.442,0.704-1.106,1.183-1.99,1.436v0.054
			c1.047,0.235,1.869,0.74,2.464,1.517c0.596,0.777,0.894,1.706,0.894,2.789c0,0.993-0.194,1.878-0.582,2.654
			c-0.389,0.776-0.907,1.427-1.557,1.95s-1.399,0.921-2.248,1.19c-0.849,0.271-1.733,0.407-2.654,0.407
			c-1.065,0-2.036-0.154-2.911-0.46c-0.876-0.308-1.621-0.754-2.234-1.341c-0.614-0.588-1.088-1.305-1.422-2.153
			c-0.334-0.848-0.492-1.823-0.474-2.925h3.656c0.018,0.506,0.099,0.988,0.243,1.448c0.145,0.461,0.353,0.858,0.624,1.192
			c0.271,0.335,0.609,0.601,1.016,0.798c0.406,0.199,0.889,0.299,1.449,0.299c0.867,0,1.598-0.267,2.193-0.799
			c0.596-0.532,0.894-1.26,0.894-2.181c0-0.722-0.14-1.272-0.42-1.651c-0.28-0.38-0.636-0.654-1.069-0.826
			c-0.434-0.172-0.907-0.271-1.422-0.297c-0.515-0.028-1.006-0.041-1.476-0.041v-2.709
			C169.704,658.18,170.146,658.18,170.615,658.143z"/>
	</g>
	<path fill="#FFFFFF" stroke="#1B7D9B" stroke-width="6" stroke-miterlimit="10" d="M380.914,670.199
		c0,1.108-0.899,2.009-2.009,2.009h-60.803c-1.109,0-2.009-0.9-2.009-2.009v-63.462c0-1.108,0.899-2.009,2.009-2.009h60.803
		c1.11,0,2.009,0.9,2.009,2.009V670.199z"/>
	<rect x="318.455" y="607.092" fill="#1B7D9B" width="60.096" height="9.735"/>
	
		<line fill="none" stroke="#1B7D9B" stroke-width="4" stroke-miterlimit="10" x1="316.092" y1="628.979" x2="380.914" y2="628.979"/>
	
		<line fill="none" stroke="#1B7D9B" stroke-width="4" stroke-miterlimit="10" x1="318.455" y1="642.914" x2="383.276" y2="642.914"/>
	
		<line fill="none" stroke="#1B7D9B" stroke-width="4" stroke-miterlimit="10" x1="314.542" y1="656.904" x2="379.362" y2="656.904"/>
	
		<line fill="none" stroke="#1B7D9B" stroke-width="4" stroke-miterlimit="10" x1="338.007" y1="610.709" x2="338.007" y2="672.381"/>
	
		<line fill="none" stroke="#1B7D9B" stroke-width="4" stroke-miterlimit="10" x1="359.307" y1="610.709" x2="359.307" y2="672.381"/>
	<path fill="#FFFFFF" stroke="#1B7D9B" stroke-width="10" stroke-miterlimit="10" d="M525.718,668.771c0,1.108-0.9,2.009-2.01,2.009
		h-60.803c-1.109,0-2.01-0.9-2.01-2.009V605.31c0-1.108,0.9-2.009,2.01-2.009h60.803c1.109,0,2.01,0.9,2.01,2.009V668.771z"/>
	<g>
		<path fill="#1B7D9B" d="M478.305,624.556c1.032-1.546,2.349-2.79,3.94-3.729c1.599-0.938,3.392-1.61,5.386-2.006
			c1.993-0.4,3.999-0.601,6.021-0.601c1.826,0,3.684,0.131,5.561,0.389c1.873,0.258,3.587,0.764,5.14,1.514
			c1.547,0.75,2.813,1.793,3.797,3.134c0.986,1.334,1.479,3.104,1.479,5.311v18.938c0,1.645,0.097,3.214,0.28,4.714
			c0.188,1.5,0.516,2.63,0.985,3.38H500.76c-0.189-0.562-0.344-1.139-0.458-1.724c-0.12-0.584-0.2-1.187-0.246-1.794
			c-1.598,1.638-3.472,2.79-5.631,3.448c-2.16,0.653-4.366,0.985-6.616,0.985c-1.735,0-3.357-0.212-4.857-0.635
			c-1.502-0.424-2.813-1.077-3.941-1.971c-1.129-0.888-2.006-2.017-2.641-3.379c-0.631-1.359-0.95-2.979-0.95-4.859
			c0-2.062,0.365-3.764,1.093-5.099c0.728-1.339,1.661-2.404,2.813-3.207c1.15-0.796,2.462-1.392,3.941-1.793
			c1.478-0.396,2.966-0.717,4.473-0.951c1.5-0.235,2.979-0.424,4.434-0.562c1.456-0.144,2.745-0.354,3.872-0.636
			c1.123-0.28,2.018-0.688,2.676-1.23c0.653-0.539,0.957-1.323,0.911-2.355c0-1.082-0.172-1.936-0.526-2.572
			c-0.351-0.636-0.819-1.128-1.41-1.478c-0.585-0.35-1.266-0.585-2.039-0.704c-0.773-0.115-1.61-0.178-2.498-0.178
			c-1.97,0-3.522,0.424-4.646,1.271c-1.128,0.842-1.788,2.252-1.97,4.222h-9.997C476.684,628.051,477.273,626.103,478.305,624.556z
			 M498.051,638.671c-0.637,0.212-1.317,0.383-2.045,0.527c-0.728,0.136-1.489,0.257-2.286,0.35
			c-0.797,0.097-1.593,0.211-2.394,0.354c-0.75,0.138-1.49,0.326-2.218,0.561c-0.728,0.235-1.357,0.551-1.9,0.951
			c-0.539,0.402-0.976,0.906-1.302,1.513c-0.327,0.612-0.493,1.386-0.493,2.325c0,0.888,0.166,1.645,0.493,2.252
			c0.326,0.607,0.774,1.088,1.341,1.442c0.562,0.35,1.22,0.596,1.972,0.74c0.75,0.137,1.522,0.212,2.319,0.212
			c1.97,0,3.494-0.333,4.576-0.986c1.077-0.658,1.873-1.443,2.395-2.359c0.516-0.917,0.831-1.84,0.951-2.778
			c0.114-0.939,0.172-1.689,0.172-2.257v-3.729C499.213,638.167,498.682,638.459,498.051,638.671z"/>
	</g>
	<g>
		<g>
			<path fill="none" stroke="#1B7D9B" stroke-width="15" stroke-miterlimit="10" d="M663.833,640.105v-3.317
				c0-16.882-13.687-30.568-30.568-30.568s-30.568,13.687-30.568,30.568s13.687,30.568,30.568,30.568"/>
			<g>
				<polygon fill="#1B7D9B" points="680.916,635.059 663.738,664.863 646.514,635.084 				"/>
			</g>
		</g>
	</g>
	<path fill="#1B7D9B" d="M228.119,761.493c0,0.465-0.777,0.841-1.736,0.841h-44.466c-0.959,0-1.736-0.376-1.736-0.841v-1.902
		c0-0.465,0.777-0.841,1.736-0.841h44.466c0.959,0,1.736,0.376,1.736,0.841V761.493z"/>
	<path fill="#1B7D9B" d="M228.119,773.716c0,0.465-0.777,0.841-1.736,0.841h-44.466c-0.959,0-1.736-0.376-1.736-0.841v-1.902
		c0-0.465,0.777-0.841,1.736-0.841h44.466c0.959,0,1.736,0.376,1.736,0.841V773.716z"/>
	<path fill="#1B7D9B" d="M228.119,785.938c0,0.465-0.777,0.841-1.736,0.841h-44.466c-0.959,0-1.736-0.376-1.736-0.841v-1.902
		c0-0.465,0.777-0.841,1.736-0.841h44.466c0.959,0,1.736,0.376,1.736,0.841V785.938z"/>
	<path fill="#1B7D9B" d="M213.953,799.001h-32.037c-0.959,0-1.736-0.376-1.736-0.841v-1.902c0-0.465,0.777-0.841,1.736-0.841h32.037
		V799.001z"/>
	
		<line fill="#FFFFFF" stroke="#1B7D9B" stroke-width="6" stroke-miterlimit="10" x1="237.466" y1="794.776" x2="219.724" y2="814.868"/>
	<path fill="#FFFFFF" stroke="#1B7D9B" stroke-width="6" stroke-miterlimit="10" d="M386.584,810.582
		c0,1.252-1.015,2.268-2.268,2.268h-72.131c-1.252,0-2.268-1.016-2.268-2.268v-33.158c0-1.252,1.015-2.268,2.268-2.268h72.131
		c1.252,0,2.268,1.016,2.268,2.268V810.582z"/>
	
		<line fill="#FFFFFF" stroke="#1B7D9B" stroke-width="3" stroke-miterlimit="10" x1="331.724" y1="765.324" x2="364.224" y2="765.324"/>
	<line fill="#FFFFFF" stroke="#1B7D9B" stroke-width="3" stroke-miterlimit="10" x1="331.724" y1="758.5" x2="364.224" y2="758.5"/>
	
		<line fill="#FFFFFF" stroke="#1B7D9B" stroke-width="3" stroke-miterlimit="10" x1="331.724" y1="751.678" x2="364.224" y2="751.678"/>
	
		<line fill="#FFFFFF" stroke="#1B7D9B" stroke-width="3" stroke-miterlimit="10" x1="316.601" y1="803.932" x2="378.463" y2="803.932"/>
	
		<line fill="#FFFFFF" stroke="#1B7D9B" stroke-width="10" stroke-miterlimit="10" x1="498.184" y1="785.165" x2="530.427" y2="817.407"/>
	<circle fill="#FFFFFF" stroke="#1B7D9B" stroke-width="10" stroke-miterlimit="10" cx="484.448" cy="771.819" r="28.712"/>
	<path fill="#1B7D9B" d="M642.888,813.951c0,0.839-0.681,1.519-1.519,1.518h-11.007c-0.838,0-1.518-0.679-1.517-1.517l-0.001-68.886
		c0-0.838,0.68-1.518,1.519-1.519l11.006,0.001c0.838,0.001,1.518,0.68,1.518,1.517L642.888,813.951z"/>
	<path fill="#1B7D9B" d="M601.692,786.262c-0.838-0.001-1.518-0.681-1.519-1.519v-11.007c0-0.837,0.68-1.517,1.518-1.518
		l68.885,0.001c0.839,0,1.518,0.68,1.519,1.519l0.001,11.006c-0.001,0.838-0.681,1.519-1.518,1.519L601.692,786.262z"/>
	<path fill="#1B7D9B" d="M234.419,376.267c0.593,0.593,0.593,1.555,0,2.146l-7.783,7.783c-0.592,0.593-1.554,0.593-2.146,0
		l-48.709-48.709c-0.593-0.593-0.593-1.554,0-2.147l7.783-7.782c0.592-0.592,1.554-0.592,2.146,0L234.419,376.267z"/>
	<path fill="#1B7D9B" d="M185.71,385.816c-0.593,0.592-1.554,0.592-2.147,0l-7.783-7.783c-0.592-0.592-0.592-1.553,0-2.146
		l48.709-48.708c0.593-0.593,1.554-0.593,2.147,0l7.783,7.782c0.592,0.593,0.592,1.555,0,2.146L185.71,385.816z"/>
	<polygon fill="#1B7D9B" points="226.333,956.015 181.951,956.015 175.598,899.851 232.205,899.851 	"/>
	<polygon fill="#1B7D9B" points="179.555,888.772 228.25,888.772 235.22,895.569 173.113,895.569 	"/>
	<rect x="197.404" y="879.833" fill="#1B7D9B" width="13.46" height="3.999"/>
	<ellipse fill="#1B7D9B" cx="204.166" cy="955.54" rx="22.215" ry="4.142"/>
	<path fill="#ABD1DA" d="M203.058,955.543c-0.76,0-1.374-0.828-1.374-1.85v-47.366c0-1.021,0.614-1.849,1.374-1.849h3.108
		c0.76,0,1.375,0.828,1.375,1.849v47.366c0,1.021-0.614,1.85-1.375,1.85H203.058z"/>
	<path fill="#ABD1DA" d="M217.421,953.969c-0.688-0.056-1.18-0.89-1.102-1.86l3.638-45.075c0.078-0.973,0.697-1.715,1.385-1.659
		l2.814,0.228c0.688,0.055,1.18,0.888,1.102,1.859l-3.638,45.075c-0.078,0.972-0.698,1.715-1.386,1.659L217.421,953.969z"/>
	<path fill="#ABD1DA" d="M188.145,953.898c-0.707,0.06-1.345-0.681-1.426-1.651l-3.797-45.063c-0.082-0.971,0.422-1.807,1.129-1.866
		l2.891-0.243c0.707-0.061,1.344,0.68,1.426,1.651l3.797,45.062c0.082,0.972-0.422,1.808-1.129,1.868L188.145,953.898z"/>
	
		<rect x="206.628" y="883.301" transform="matrix(0.5253 0.8509 -0.8509 0.5253 854.2233 239.9767)" fill="#1B7D9B" width="10.772" height="4.699"/>
	
		<rect x="191.347" y="883.303" transform="matrix(-0.5253 0.8509 -0.8509 -0.5253 1053.6926 1183.4882)" fill="#1B7D9B" width="10.773" height="4.7"/>
	<path fill="#1B7D9B" d="M341.242,947.602c-1.532,1.531-3.671,1.876-4.778,0.77l-15.886-15.886c-1.107-1.107-0.762-3.247,0.77-4.778
		l45.603-45.604c1.532-1.531,3.671-1.876,4.778-0.77l15.886,15.886c1.107,1.107,0.762,3.247-0.77,4.778L341.242,947.602z"/>
	
		<ellipse transform="matrix(0.7336 0.6796 -0.6796 0.7336 706.3993 -18.9227)" fill="#1B7D9B" cx="377.337" cy="891.592" rx="14.047" ry="7.887"/>
	
		<line fill="none" stroke="#ABD1DA" stroke-width="5" stroke-miterlimit="10" x1="326.054" y1="933.604" x2="383.134" y2="876.525"/>
	<polygon fill="#FDFDFE" points="314.643,953.84 340.071,948.771 340.163,939.082 329.957,939.094 330.199,929.914 319.893,929.727 
			"/>
	<path fill="#1B7D9B" d="M314.643,953.84l2.852-13.099c0,0,8.037,2.342,10.047,10.527L314.643,953.84z"/>
</g>
<g id="circle_symbols">
	<path fill="#1B7D9B" d="M1103.898,843.123c-34.736,0-62.997-28.261-62.997-62.997s28.261-62.997,62.997-62.997
		s62.997,28.261,62.997,62.997S1138.635,843.123,1103.898,843.123z M1103.898,728.129c-28.671,0-51.997,23.326-51.997,51.997
		s23.326,51.997,51.997,51.997s51.997-23.326,51.997-51.997S1132.569,728.129,1103.898,728.129z"/>
	<path fill="#1B7D9B" d="M1262.279,842.506c-34.736,0-62.997-28.261-62.997-62.997s28.261-62.997,62.997-62.997
		s62.997,28.261,62.997,62.997S1297.016,842.506,1262.279,842.506z M1262.279,727.512c-28.671,0-51.997,23.326-51.997,51.997
		s23.326,51.997,51.997,51.997s51.997-23.326,51.997-51.997S1290.95,727.512,1262.279,727.512z"/>
	<g>
		<g>
			<path fill="#1B7D9B" d="M1263.385,744.312c-12.24,0-22.254,9.53-23.025,21.576c-0.035,0.549,0.533,1.361,1.548,1.416
				c0.363,0.02,8.117,0.008,11.191,0.003c0.765-0.002,1.258-0.723,1.284-1.067c0.404-5.162,3.507-7.902,9.002-7.902
				c5.891,0,9.052,3.16,9.052,9.05c0,4.617-2.97,7.177-5.178,8.426c-10.15,6.123-12.236,14.967-12.665,18.275
				c-0.108,0.832,0.517,1.314,1.441,1.314c0.713,0,7.875,0,11.129,0c0.972,0,1.603-0.421,1.788-1.137
				c0.486-1.884,2.199-5.808,8.22-9.482c7.229-4.413,9.29-10.732,9.29-17.396C1286.462,754.643,1276.129,744.312,1263.385,744.312z"
				/>
		</g>
		<path fill="#1B7D9B" d="M1269.179,812.483c0,0.931-0.754,1.685-1.685,1.685h-11.374c-0.931,0-1.686-0.754-1.686-1.685v-10.321
			c0-0.931,0.755-1.685,1.686-1.685h11.374c0.931,0,1.685,0.754,1.685,1.685V812.483z"/>
	</g>
	<path fill="#1B7D9B" d="M1419.74,842.841c-34.736,0-62.997-28.261-62.997-62.997s28.261-62.997,62.997-62.997
		s62.997,28.261,62.997,62.997S1454.477,842.841,1419.74,842.841z M1419.74,727.847c-28.671,0-51.997,23.326-51.997,51.997
		s23.326,51.997,51.997,51.997s51.997-23.326,51.997-51.997S1448.411,727.847,1419.74,727.847z"/>
	<g>
		<path fill="#1B7D9B" d="M1092.551,809.743c-0.628,0.628-1.645,0.628-2.273,0l-8.238-8.239c-0.627-0.627-0.627-1.645,0-2.271
			l48.722-48.722c0.628-0.629,1.646-0.629,2.273-0.001l8.238,8.239c0.627,0.628,0.627,1.646,0,2.272L1092.551,809.743z"/>
		<path fill="#1B7D9B" d="M1098.486,796.896c0.629,0.628,0.628,1.646,0.001,2.273l-8.239,8.238c-0.627,0.627-1.645,0.627-2.271,0
			l-20.881-20.88c-0.628-0.628-0.628-1.646,0-2.274l8.238-8.237c0.627-0.628,1.646-0.628,2.272,0L1098.486,796.896z"/>
	</g>
	<g>
		<path fill="#1B7D9B" d="M1428.509,813.374c0,0.993-0.806,1.798-1.799,1.798h-13.033c-0.992,0-1.798-0.805-1.798-1.798v-45.616
			c0-0.993,0.806-1.8,1.8-1.8h13.033c0.991,0.002,1.797,0.807,1.797,1.8V813.374z"/>
		<circle fill="#1B7D9B" cx="1419.745" cy="750.23" r="9.213"/>
	</g>
	<rect x="841.89" y="905.197" fill="#5E5F5F" width="980.11" height="215.803"/>
	<g>
		<path fill="#FFFFFF" d="M1262.279,1075.921c-34.736,0-62.997-28.261-62.997-62.997s28.261-62.997,62.997-62.997
			s62.997,28.261,62.997,62.997S1297.016,1075.921,1262.279,1075.921z M1262.279,960.927c-28.671,0-51.997,23.326-51.997,51.997
			s23.326,51.997,51.997,51.997s51.997-23.326,51.997-51.997S1290.95,960.927,1262.279,960.927z"/>
		<g>
			<g>
				<path fill="#FFFFFF" d="M1263.385,977.727c-12.24,0-22.254,9.53-23.025,21.576c-0.035,0.549,0.533,1.361,1.548,1.416
					c0.363,0.02,8.117,0.008,11.191,0.003c0.765-0.002,1.258-0.723,1.284-1.067c0.404-5.162,3.507-7.902,9.002-7.902
					c5.891,0,9.052,3.16,9.052,9.05c0,4.617-2.97,7.177-5.178,8.426c-10.15,6.123-12.236,14.967-12.665,18.275
					c-0.108,0.832,0.517,1.314,1.441,1.314c0.713,0,7.875,0,11.129,0c0.972,0,1.603-0.421,1.788-1.137
					c0.486-1.884,2.199-5.808,8.22-9.482c7.229-4.413,9.29-10.732,9.29-17.396C1286.462,988.058,1276.129,977.727,1263.385,977.727z
					"/>
			</g>
			<path fill="#FFFFFF" d="M1269.179,1045.898c0,0.931-0.754,1.685-1.685,1.685h-11.374c-0.931,0-1.686-0.754-1.686-1.685v-10.321
				c0-0.931,0.755-1.685,1.686-1.685h11.374c0.931,0,1.685,0.754,1.685,1.685V1045.898z"/>
		</g>
	</g>
	<path fill="#FFFFFF" d="M1419.74,1076.256c-34.736,0-62.997-28.261-62.997-62.997s28.261-62.997,62.997-62.997
		s62.997,28.261,62.997,62.997S1454.477,1076.256,1419.74,1076.256z M1419.74,961.262c-28.671,0-51.997,23.326-51.997,51.997
		s23.326,51.997,51.997,51.997s51.997-23.326,51.997-51.997S1448.411,961.262,1419.74,961.262z"/>
	<g>
		<path fill="#FFFFFF" d="M1103.898,1076.538c-34.736,0-62.997-28.261-62.997-62.997s28.261-62.997,62.997-62.997
			s62.997,28.261,62.997,62.997S1138.635,1076.538,1103.898,1076.538z M1103.898,961.544c-28.671,0-51.997,23.326-51.997,51.997
			s23.326,51.997,51.997,51.997s51.997-23.326,51.997-51.997S1132.569,961.544,1103.898,961.544z"/>
		<g>
			<path fill="#FFFFFF" d="M1092.551,1043.158c-0.628,0.628-1.645,0.628-2.273,0l-8.238-8.239c-0.627-0.627-0.627-1.645,0-2.271
				l48.722-48.722c0.628-0.629,1.646-0.629,2.273-0.001l8.238,8.239c0.627,0.628,0.627,1.646,0,2.272L1092.551,1043.158z"/>
			<path fill="#FFFFFF" d="M1098.486,1030.312c0.629,0.628,0.628,1.646,0.001,2.273l-8.239,8.238c-0.627,0.627-1.645,0.627-2.271,0
				l-20.881-20.88c-0.628-0.628-0.628-1.646,0-2.274l8.238-8.237c0.627-0.628,1.646-0.628,2.272,0L1098.486,1030.312z"/>
		</g>
	</g>
	<g>
		<path fill="#FFFFFF" d="M1428.509,1046.789c0,0.993-0.806,1.798-1.799,1.798h-13.033c-0.992,0-1.798-0.805-1.798-1.798v-45.616
			c0-0.993,0.806-1.8,1.8-1.8h13.033c0.991,0.002,1.797,0.807,1.797,1.8V1046.789z"/>
		<circle fill="#FFFFFF" cx="1419.745" cy="983.646" r="9.213"/>
	</g>
	<path fill="#FFFFFF" d="M1587.158,957.132c-31.957,0-57.863,25.906-57.863,57.863s25.906,57.863,57.863,57.863
		s57.863-25.906,57.863-57.863S1619.115,957.132,1587.158,957.132z M1616.478,1033.121c0.593,0.593,0.593,1.555,0,2.146
		l-7.783,7.783c-0.593,0.593-1.554,0.593-2.146,0l-19.58-19.58l-19.2,19.2c-0.593,0.592-1.554,0.592-2.147,0l-7.783-7.783
		c-0.592-0.592-0.592-1.553,0-2.146l19.201-19.2l-19.2-19.199c-0.593-0.593-0.593-1.554,0-2.147l7.783-7.782
		c0.593-0.592,1.554-0.592,2.146,0l19.2,19.2l19.58-19.579c0.593-0.593,1.554-0.593,2.147,0l7.783,7.782
		c0.592,0.593,0.592,1.555,0,2.146l-19.58,19.58L1616.478,1033.121z"/>
	<g>
		<g>
			<path fill="#FFFFFF" d="M975.658,1033.718c0.593,0.593,0.593,1.555,0,2.146l-7.783,7.783c-0.593,0.593-1.554,0.593-2.146,0
				l-48.71-48.709c-0.593-0.593-0.593-1.554,0-2.147l7.783-7.782c0.593-0.592,1.554-0.592,2.146,0L975.658,1033.718z"/>
			<path fill="#FFFFFF" d="M926.949,1043.268c-0.593,0.592-1.554,0.592-2.147,0l-7.783-7.783c-0.592-0.592-0.592-1.553,0-2.146
				l48.71-48.708c0.593-0.593,1.554-0.593,2.147,0l7.783,7.782c0.592,0.593,0.592,1.555,0,2.146L926.949,1043.268z"/>
			<path fill="#FFFFFF" d="M975.658,1033.718c0.593,0.593,0.593,1.555,0,2.146l-7.783,7.783c-0.593,0.593-1.554,0.593-2.146,0
				l-48.71-48.709c-0.593-0.593-0.593-1.554,0-2.147l7.783-7.782c0.593-0.592,1.554-0.592,2.146,0L975.658,1033.718z"/>
			<path fill="#FFFFFF" d="M926.949,1043.268c-0.593,0.592-1.554,0.592-2.147,0l-7.783-7.783c-0.592-0.592-0.592-1.553,0-2.146
				l48.71-48.708c0.593-0.593,1.554-0.593,2.147,0l7.783,7.782c0.592,0.593,0.592,1.555,0,2.146L926.949,1043.268z"/>
		</g>
		<path fill="#FFFFFF" d="M946.108,1077.992c-34.736,0-62.997-28.261-62.997-62.997s28.261-62.997,62.997-62.997
			s62.997,28.261,62.997,62.997S980.845,1077.992,946.108,1077.992z M946.108,962.998c-28.671,0-51.997,23.326-51.997,51.997
			s23.326,51.997,51.997,51.997s51.997-23.326,51.997-51.997S974.779,962.998,946.108,962.998z"/>
	</g>
	<path fill="#4F4F4F" d="M1574.451,722.264c-31.957,0-57.863,25.906-57.863,57.863s25.906,57.863,57.863,57.863
		s57.863-25.906,57.863-57.863S1606.408,722.264,1574.451,722.264z M1603.771,798.253c0.593,0.593,0.593,1.555,0,2.146l-7.783,7.783
		c-0.593,0.593-1.554,0.593-2.146,0l-19.58-19.58l-19.2,19.2c-0.593,0.592-1.554,0.592-2.147,0l-7.783-7.783
		c-0.592-0.592-0.592-1.553,0-2.146l19.201-19.2l-19.2-19.199c-0.593-0.593-0.593-1.554,0-2.147l7.783-7.782
		c0.593-0.592,1.554-0.592,2.146,0l19.2,19.2l19.58-19.579c0.593-0.593,1.554-0.593,2.147,0l7.783,7.782
		c0.592,0.593,0.592,1.555,0,2.146l-19.58,19.58L1603.771,798.253z"/>
</g>
<g id="buttons">
	<path fill="#F2F2F2" stroke="#C4C4C3" stroke-width="3" stroke-miterlimit="10" d="M1261.983,320.939c0-6.627-4.574-12-10.218-12
		H956.032c-5.643,0-10.218,5.373-10.218,12V435.16c0,6.627,4.575,12,10.218,12h295.733c5.644,0,10.218-5.373,10.218-12V320.939z"/>
	<g>
		<path fill="#5E5F5F" d="M1034.495,411.644c0,0.839-0.681,1.519-1.519,1.518h-11.007c-0.838,0-1.518-0.679-1.517-1.517
			l-0.001-68.886c0-0.838,0.68-1.518,1.519-1.519l11.006,0.001c0.838,0.001,1.518,0.68,1.518,1.517L1034.495,411.644z"/>
		<path fill="#5E5F5F" d="M993.3,383.954c-0.838-0.001-1.518-0.681-1.519-1.519v-11.007c0-0.837,0.68-1.517,1.518-1.518
			l68.885,0.001c0.839,0,1.518,0.68,1.519,1.519l0.001,11.006c-0.001,0.838-0.681,1.519-1.518,1.519L993.3,383.954z"/>
	</g>
	<text transform="matrix(1 0 0 1 1094.0977 399.2393)" fill="#5E5F5F" font-family="'ArialMT'" font-size="61.7105">Add</text>
	<path fill="#F2F2F2" stroke="#C4C4C3" stroke-width="3" stroke-miterlimit="10" d="M1464.924,321.507c0-6.627-2.021-12-4.513-12
		h-130.624c-2.492,0-4.513,5.373-4.513,12v114.221c0,6.627,2.021,12,4.513,12h130.624c2.492,0,4.513-5.373,4.513-12V321.507z"/>
	<path fill="#F2F2F2" stroke="#C4C4C3" stroke-width="3" stroke-miterlimit="10" d="M1845.464,321.507c0-6.627-4.574-12-10.218-12
		h-295.733c-5.643,0-10.218,5.373-10.218,12v114.221c0,6.627,4.575,12,10.218,12h295.733c5.644,0,10.218-5.373,10.218-12V321.507z"
		/>
	<text transform="matrix(1 0 0 1 1674.3408 399.5928)" fill="#5E5F5F" font-family="'ArialMT'" font-size="61.7105">Edit</text>
	<path fill="#F2F2F2" stroke="#898989" stroke-width="3" stroke-miterlimit="10" d="M1261.983,504.432c0-6.627-4.574-12-10.218-12
		H956.032c-5.643,0-10.218,5.373-10.218,12v114.221c0,6.627,4.575,12,10.218,12h295.733c5.644,0,10.218-5.373,10.218-12V504.432z"/>
	<text transform="matrix(1 0 0 1 1095.5156 582.165)" fill="#5E5F5F" font-family="'ArialMT'" font-size="61.7105">Yes</text>
	<g>
		<path fill="#4B754F" d="M1016.959,591.158c-0.628,0.628-1.645,0.628-2.273,0l-8.238-8.239c-0.627-0.627-0.627-1.645,0-2.271
			l48.722-48.722c0.628-0.629,1.646-0.629,2.273-0.001l8.238,8.239c0.627,0.628,0.627,1.646,0,2.272L1016.959,591.158z"/>
		<path fill="#4B754F" d="M1022.895,578.312c0.629,0.628,0.628,1.646,0.001,2.273l-8.239,8.238c-0.627,0.627-1.645,0.627-2.271,0
			l-20.881-20.88c-0.628-0.628-0.628-1.646,0-2.274l8.238-8.237c0.627-0.628,1.646-0.628,2.272,0L1022.895,578.312z"/>
	</g>
	<path fill="#CCCCCC" stroke="#727373" stroke-width="3" stroke-miterlimit="10" d="M1640.821,504.432c0-6.627-4.574-12-10.218-12
		H1334.87c-5.643,0-10.218,5.373-10.218,12v114.221c0,6.627,4.575,12,10.218,12h295.733c5.644,0,10.218-5.373,10.218-12V504.432z"/>
	<text transform="matrix(1 0 0 1 1483.707 581.3145)" fill="#434343" font-family="'ArialMT'" font-size="61.7105">No</text>
	<g>
		<path fill="#782F30" d="M1438.011,579.089c0.593,0.593,0.593,1.555,0,2.146l-7.783,7.783c-0.593,0.593-1.554,0.593-2.146,0
			l-48.71-48.709c-0.593-0.593-0.593-1.554,0-2.147l7.783-7.782c0.593-0.592,1.554-0.592,2.146,0L1438.011,579.089z"/>
		<path fill="#782F30" d="M1389.302,588.639c-0.593,0.592-1.554,0.592-2.147,0l-7.783-7.783c-0.592-0.592-0.592-1.553,0-2.146
			l48.71-48.708c0.593-0.593,1.554-0.593,2.147,0l7.783,7.782c0.592,0.593,0.592,1.555,0,2.146L1389.302,588.639z"/>
	</g>
	<g>
		<path fill="#5E5F5F" d="M1598.535,408.085c-1.531,1.531-3.672,1.876-4.778,0.77l-15.886-15.886
			c-1.107-1.107-0.762-3.247,0.77-4.778l45.604-45.604c1.531-1.531,3.672-1.876,4.778-0.77l15.886,15.886
			c1.107,1.107,0.762,3.247-0.77,4.778L1598.535,408.085z"/>
		
			<ellipse transform="matrix(0.7336 0.6795 -0.6795 0.7336 674.6642 -1017.0258)" fill="#5E5F5F" cx="1634.63" cy="352.075" rx="14.047" ry="7.887"/>
		
			<line fill="#C4C4C3" stroke="#F2F2F2" stroke-width="3" stroke-miterlimit="10" x1="1583.347" y1="394.088" x2="1640.427" y2="337.009"/>
		<polygon fill="#FDFDFE" points="1571.936,414.323 1597.363,409.255 1597.456,399.565 1587.25,399.577 1587.492,390.397 
			1577.186,390.21 		"/>
		<path fill="#5E5F5F" d="M1571.936,414.323l2.853-13.099c0,0,8.037,2.342,10.048,10.527L1571.936,414.323z"/>
	</g>
	<g>
		<polygon fill="#FDFDFE" points="1385.096,347.266 1390.938,335.941 1401.879,335.01 1406.951,345.747 		"/>
		<polygon fill="#5E5F5F" points="1420.513,417.199 1371.897,417.199 1364.938,355.679 1426.944,355.679 		"/>
		<polygon fill="#5E5F5F" points="1369.271,343.543 1422.612,343.543 1430.248,350.989 1362.217,350.989 		"/>
		<rect x="1388.824" y="333.752" fill="#5E5F5F" width="14.743" height="4.38"/>
		<ellipse fill="#5E5F5F" cx="1396.231" cy="416.68" rx="24.333" ry="4.537"/>
		<path fill="#C4C4C3" d="M1395.018,416.684c-0.832,0-1.506-0.908-1.506-2.027v-51.884c0-1.118,0.674-2.024,1.506-2.024h3.404
			c0.833,0,1.506,0.906,1.506,2.024v51.884c0,1.119-0.673,2.027-1.506,2.027H1395.018z"/>
		<path fill="#C4C4C3" d="M1410.751,414.958c-0.756-0.061-1.293-0.975-1.208-2.038l3.985-49.373c0.085-1.066,0.764-1.88,1.516-1.818
			l3.084,0.25c0.753,0.06,1.292,0.973,1.206,2.036l-3.984,49.374c-0.086,1.065-0.765,1.879-1.519,1.817L1410.751,414.958z"/>
		<path fill="#C4C4C3" d="M1378.682,414.881c-0.773,0.066-1.473-0.745-1.563-1.809l-4.158-49.36
			c-0.09-1.063,0.463-1.979,1.236-2.045l3.166-0.266c0.774-0.066,1.472,0.744,1.562,1.809l4.159,49.36
			c0.09,1.064-0.462,1.979-1.236,2.046L1378.682,414.881z"/>
		
			<rect x="1398.928" y="337.55" transform="matrix(0.5254 0.8508 -0.8508 0.5254 956.0773 -1033.8662)" fill="#5E5F5F" width="11.8" height="5.147"/>
		
			<rect x="1382.189" y="337.552" transform="matrix(-0.5252 0.851 -0.851 -0.5252 2406.5981 -662.4296)" fill="#5E5F5F" width="11.801" height="5.148"/>
	</g>
</g>
<g id="coloured_web_symbols" display="none">
	<g display="inline">
		<circle fill="#C12126" stroke="#FFFFFF" cx="951.334" cy="356.973" r="55"/>
		<g>
			<path fill="#FFFFFF" d="M980.653,376.552c0.593,0.593,0.593,1.555,0,2.146l-7.783,7.783c-0.593,0.593-1.554,0.593-2.146,0
				l-48.71-48.709c-0.593-0.593-0.593-1.554,0-2.147l7.783-7.782c0.593-0.592,1.554-0.592,2.146,0L980.653,376.552z"/>
			<path fill="#FFFFFF" d="M931.944,386.102c-0.593,0.592-1.554,0.592-2.147,0l-7.783-7.783c-0.592-0.592-0.592-1.553,0-2.146
				l48.71-48.708c0.593-0.593,1.554-0.593,2.147,0l7.783,7.782c0.592,0.593,0.592,1.555,0,2.146L931.944,386.102z"/>
		</g>
	</g>
	<circle display="inline" fill="#325A93" stroke="#FFFFFF" cx="1089.334" cy="356.782" r="55"/>
	<g display="inline">
		<path fill="#FFFFFF" d="M1098.098,392.062c0,0.993-0.806,1.798-1.799,1.798h-13.033c-0.992,0-1.798-0.805-1.798-1.798v-45.616
			c0-0.993,0.806-1.8,1.8-1.8h13.033c0.991,0.002,1.797,0.807,1.797,1.8V392.062z"/>
		<circle fill="#FFFFFF" cx="1089.334" cy="328.918" r="9.213"/>
	</g>
	<circle display="inline" fill="#649B57" stroke="#FFFFFF" cx="1223.334" cy="356.782" r="55"/>
	<g display="inline">
		<g>
			<path fill="#FFFFFF" d="M1223.458,322.234c-12.24,0-22.254,9.53-23.025,21.576c-0.035,0.549,0.533,1.361,1.548,1.416
				c0.363,0.02,8.117,0.008,11.191,0.003c0.765-0.002,1.258-0.723,1.284-1.067c0.404-5.162,3.507-7.902,9.002-7.902
				c5.891,0,9.052,3.16,9.052,9.05c0,4.617-2.97,7.177-5.178,8.426c-10.15,6.123-12.236,14.967-12.665,18.275
				c-0.108,0.832,0.517,1.314,1.441,1.314c0.713,0,7.875,0,11.129,0c0.972,0,1.603-0.421,1.788-1.137
				c0.486-1.884,2.199-5.808,8.22-9.482c7.229-4.413,9.29-10.732,9.29-17.396C1246.535,332.565,1236.202,322.234,1223.458,322.234z"
				/>
		</g>
		<path fill="#FFFFFF" d="M1229.252,390.406c0,0.931-0.754,1.685-1.685,1.685h-11.374c-0.931,0-1.686-0.754-1.686-1.685v-10.321
			c0-0.931,0.755-1.685,1.686-1.685h11.374c0.931,0,1.685,0.754,1.685,1.685V390.406z"/>
	</g>
	<linearGradient id="SVGID_3_" gradientUnits="userSpaceOnUse" x1="950.0781" y1="341.5029" x2="947.4113" y2="300.8394">
		<stop  offset="0" style="stop-color:#FFFFFF;stop-opacity:0"/>
		<stop  offset="1" style="stop-color:#FFFFFF"/>
	</linearGradient>
	<path display="inline" fill="url(#SVGID_3_)" d="M899.852,348.228c0,0,48.666-32.946,101.333,0c0,0-5.333-43.047-50.666-43.047
		C909.185,305.181,899.852,348.228,899.852,348.228z"/>
	<linearGradient id="SVGID_4_" gradientUnits="userSpaceOnUse" x1="1088.1455" y1="341.5029" x2="1085.4786" y2="300.8385">
		<stop  offset="0" style="stop-color:#FFFFFF;stop-opacity:0"/>
		<stop  offset="1" style="stop-color:#FFFFFF"/>
	</linearGradient>
	<path display="inline" fill="url(#SVGID_4_)" d="M1037.92,348.228c0,0,48.666-32.946,101.333,0c0,0-5.333-43.048-50.666-43.048
		C1047.253,305.18,1037.92,348.228,1037.92,348.228z"/>
	<linearGradient id="SVGID_5_" gradientUnits="userSpaceOnUse" x1="1222.3359" y1="341.3018" x2="1219.6688" y2="300.6331">
		<stop  offset="0" style="stop-color:#FFFFFF;stop-opacity:0"/>
		<stop  offset="1" style="stop-color:#FFFFFF"/>
	</linearGradient>
	<path display="inline" fill="url(#SVGID_5_)" d="M1172.11,348.027c0,0,48.666-32.951,101.333,0c0,0-5.333-43.053-50.666-43.053
		C1181.443,304.975,1172.11,348.027,1172.11,348.027z"/>
	<g display="inline">
		<path fill="#649B57" d="M939.701,540.922c-0.628,0.628-1.645,0.628-2.273,0l-8.238-8.239c-0.627-0.627-0.627-1.645,0-2.271
			l48.722-48.722c0.628-0.629,1.646-0.629,2.273-0.001l8.238,8.239c0.627,0.628,0.627,1.646,0,2.272L939.701,540.922z"/>
		<path fill="#649B57" d="M945.637,528.075c0.629,0.628,0.628,1.646,0.001,2.273l-8.239,8.238c-0.627,0.627-1.645,0.627-2.271,0
			l-20.881-20.88c-0.628-0.628-0.628-1.646,0-2.274l8.238-8.237c0.627-0.628,1.646-0.628,2.272,0L945.637,528.075z"/>
	</g>
	<g display="inline">
		<path fill="#C12126" d="M1115.814,530.885c0.593,0.593,0.593,1.555,0,2.146l-7.783,7.783c-0.593,0.593-1.554,0.593-2.146,0
			l-48.71-48.709c-0.593-0.593-0.593-1.554,0-2.147l7.783-7.782c0.593-0.592,1.554-0.592,2.146,0L1115.814,530.885z"/>
		<path fill="#C12126" d="M1067.105,540.435c-0.593,0.592-1.554,0.592-2.147,0l-7.783-7.783c-0.592-0.592-0.592-1.553,0-2.146
			l48.71-48.708c0.593-0.593,1.554-0.593,2.147,0l7.783,7.782c0.592,0.593,0.592,1.555,0,2.146L1067.105,540.435z"/>
	</g>
</g>
</svg>
